# xmcd
#
# Track frame offsets:
#	150
#	18760
#	47512
#	86136
#	113527
#	145050
#	222239
#
# Disc length: 3289 seconds
#
# Revision: 0
# Processed by: cddbd v1.5.2PL0 Copyright (c) Steve Scherf et al.
# Submitted via: EasyCDDAExtractor 10.0.2.1
#
DISCID=520cd707
DTITLE=Heaven And Hell - Sweden Rock Festival Norje Havsbad 07-06-07 FM
DYEAR=2007
DGENRE=Hard Rock
TTITLE0=The Mob Rules
TTITLE1=Children Of The Sea
TTITLE2=The Sign Of The Southern Cross
TTITLE3=Shadow Of The Wind
TTITLE4=Die Young
TTITLE5=Heaven And Hell
TTITLE6=Neon Knights
EXTD=
EXTT0=
EXTT1=
EXTT2=
EXTT3=
EXTT4=
EXTT5=
EXTT6=
PLAYORDER=
